<svg width="146" height="36" viewBox="0 0 146 36" fill="none" xmlns="http://www.w3.org/2000/svg">
<path d="M118.147 8.76834C120.388 8.76835 122.528 9.62804 124.173 11.1906C124.838 11.8181 124.864 12.8662 124.236 13.5376C123.608 14.2028 122.56 14.2279 121.888 13.6004V13.5752C120.865 12.6026 119.534 12.0692 118.141 12.0692C115.071 12.0692 112.573 14.6672 112.573 17.8739C112.573 21.0806 115.071 23.6786 118.141 23.6786C119.528 23.6786 120.859 23.1453 121.888 22.1726C122.554 21.5451 123.602 21.5701 124.236 22.2353C124.864 22.9005 124.838 23.9485 124.173 24.5823C122.528 26.1449 120.388 27.0046 118.147 27.0046C113.194 27.0046 109.265 22.8754 109.265 17.8865C109.265 12.8975 113.276 8.76834 118.147 8.76834Z" fill="#4F39EB"/>
<path d="M74.4272 8.7558C75.0863 8.7558 75.6827 9.14482 75.9463 9.75352L82.4494 24.6639C82.8134 25.5048 82.4305 26.4838 81.5893 26.8415C81.3759 26.9356 81.15 26.9795 80.9303 26.9795H80.924C80.2838 26.9795 79.6748 26.603 79.4049 25.9818L74.4272 14.5605L69.4558 25.988C69.0917 26.8289 68.1125 27.2117 67.2777 26.8477C66.4365 26.4838 66.0536 25.5048 66.4176 24.6702L72.9081 9.75352C73.1718 9.15109 73.7681 8.75581 74.4272 8.7558Z" fill="#4F39EB"/>
<path d="M45.1384 8.85621C45.7849 8.61147 46.5068 8.78715 46.965 9.30173L57.3347 20.9614V10.4062C57.3347 9.49004 58.0754 8.74956 58.9918 8.74953C59.9083 8.74953 60.649 9.49003 60.649 10.4062V25.3228C60.649 26.0131 60.2222 26.6281 59.5819 26.8728C59.3811 26.9418 59.1802 26.9795 58.9856 26.9795C58.5211 26.9795 58.0628 26.785 57.749 26.421L47.3856 14.7613V25.3165C47.3856 26.2327 46.6449 26.9732 45.7284 26.9732C44.812 26.9732 44.0713 26.2327 44.0713 25.3165V10.4062C44.0713 9.71595 44.4981 9.10096 45.1384 8.85621Z" fill="#4F39EB"/>
<path d="M102.58 8.74316C103.226 8.74317 103.816 9.11976 104.086 9.70964C104.356 10.2933 104.262 10.9898 103.842 11.4793L93.4594 23.6661H102.58C103.496 23.6661 104.237 24.4066 104.237 25.3228C104.237 26.239 103.496 26.9795 102.58 26.9795H89.8689C89.2223 26.9795 88.6323 26.603 88.3623 26.0131C88.0924 25.4295 88.1866 24.733 88.6072 24.2435L98.9894 12.0567H89.8689C88.9524 12.0567 88.2118 11.3162 88.2117 10.4C88.2117 9.49003 88.9524 8.74316 89.8689 8.74316H102.58Z" fill="#4F39EB"/>
<path d="M137.794 8.74953C138.453 8.74953 139.05 9.13854 139.313 9.74725L145.816 24.6639C146.181 25.5048 145.798 26.4838 144.956 26.8415H144.95C144.737 26.9356 144.511 26.9795 144.291 26.9795C143.651 26.9795 143.042 26.603 142.772 25.9818L137.794 14.5605L132.823 25.9818C132.459 26.8226 131.48 27.2054 130.645 26.8415C129.804 26.4775 129.421 25.4985 129.785 24.6639L136.275 9.74725C136.539 9.14482 137.135 8.74954 137.794 8.74953Z" fill="#4F39EB"/>
<path d="M30.1922 1.34451C29.9663 1.34451 29.7466 1.37589 29.5331 1.44492L24.8128 2.93219C23.5699 3.32126 22.7351 4.46338 22.7351 5.76239V18.514L16.7719 10.5568V10.5505L10.25 1.87792C9.90473 1.41354 9.35862 1.15625 8.79996 1.15625C8.61793 1.15625 8.43589 1.18135 8.26013 1.23783L3.7783 2.63724C3.73436 2.64979 3.6967 2.66862 3.65903 2.68117L3.03133 2.88198C1.78846 3.27106 0.953613 4.41318 0.953613 5.71219V32.4893C0.953613 33.7067 1.93911 34.692 3.15687 34.692C3.38284 34.692 3.60254 34.6606 3.81596 34.5916L8.53632 33.1043C9.77919 32.7152 10.614 31.5731 10.614 30.2741V17.5225L16.5773 25.4797V25.486L23.0929 34.1711C23.4381 34.6355 23.9842 34.8928 24.5429 34.8928C24.7249 34.8928 24.9069 34.8677 25.0827 34.8112L29.5708 33.4055C29.6148 33.393 29.6524 33.3741 29.6901 33.3616L30.3178 33.1608C31.5606 32.7717 32.3955 31.6296 32.3955 30.3306V3.55345C32.3955 2.33602 31.41 1.34451 30.1922 1.34451ZM4.25536 4.39435L8.28524 3.12672C8.3229 3.11417 8.36684 3.1079 8.40451 3.1079C8.61165 3.1079 8.79368 3.27733 8.79368 3.50325V12.0817L3.92267 5.58668C3.60882 5.1725 3.78458 4.58262 4.25536 4.39435ZM8.79996 30.2741C8.79996 30.7824 8.47355 31.228 7.99022 31.3786L3.26986 32.8658C3.23219 32.8784 3.18825 32.8847 3.15059 32.8847C2.94345 32.8847 2.76141 32.7152 2.76141 32.4893V7.04885L8.79996 15.1002V30.2741ZM22.7351 30.6632L16.7719 22.7122V22.706L10.6203 14.4977V5.37959L16.5835 13.3305V13.3368L22.7351 21.545V30.6632ZM29.0875 31.6484L25.0576 32.916C25.0199 32.9286 24.976 32.9349 24.9383 32.9349C24.7312 32.9349 24.5492 32.7654 24.5492 32.5395V23.9548L29.4264 30.4561C29.734 30.8765 29.5583 31.4601 29.0875 31.6484ZM30.5877 28.9939L24.5492 20.9426V5.76867C24.5492 5.26036 24.8756 4.81481 25.3589 4.6642L30.0793 3.17693C30.1169 3.16438 30.1609 3.1581 30.1985 3.1581C30.4057 3.1581 30.5877 3.32754 30.5877 3.55345V28.9939Z" fill="#4F39EB"/>
</svg>
